<svg width="34" height="37" viewBox="0 0 34 37" fill="none" xmlns="http://www.w3.org/2000/svg">
<path d="M11.5613 27.5361V29.3139C11.5613 30.0144 11.6992 30.7079 11.9673 31.355C12.2353 32.0019 12.6281 32.5898 13.1234 33.0851C13.6187 33.5804 14.2066 33.9733 14.8535 34.2412C15.5007 34.5093 16.1942 34.6472 16.8946 34.6472C17.5951 34.6472 18.2886 34.5093 18.9357 34.2412C19.5826 33.9733 20.1705 33.5804 20.6658 33.0851C21.1611 32.5898 21.554 32.0019 21.8219 31.355C22.09 30.7079 22.2279 30.0144 22.2279 29.3139V27.5361" stroke="black" stroke-width="4" stroke-linecap="round" stroke-linejoin="round"/>
<path d="M31.1168 27.5361C31.1168 27.5361 27.5613 18.6472 27.5613 13.3139C27.5613 7.50411 22.7044 2.64722 16.8946 2.64722C11.0848 2.64722 6.22792 7.50411 6.22792 13.3139C6.22792 20.425 2.67236 27.5361 2.67236 27.5361H31.1168Z" stroke="black" stroke-width="4" stroke-linecap="round" stroke-linejoin="round"/>
</svg>
