<svg width="44" height="49" viewBox="0 0 44 49" fill="none" xmlns="http://www.w3.org/2000/svg">
<path d="M30.8135 46.6731C36.7245 46.6731 41.5162 41.8814 41.5162 35.9704C41.5162 30.0594 36.7245 25.2677 30.8135 25.2677C24.9025 25.2677 20.1108 30.0594 20.1108 35.9704C20.1108 41.8814 24.9025 46.6731 30.8135 46.6731Z" stroke="black" stroke-width="4" stroke-linecap="round" stroke-linejoin="round"/>
<path d="M30.8135 31.6895V35.703L32.954 38.1111" stroke="black" stroke-width="4" stroke-linecap="round" stroke-linejoin="round"/>
<path d="M2.27298 21.7001H14.1649" stroke="black" stroke-width="4" stroke-linecap="round" stroke-linejoin="round"/>
<path d="M40.327 16.9433V12.1866C40.327 9.55948 38.1974 7.42981 35.5703 7.42981H7.02974C4.40265 7.42981 2.27298 9.55948 2.27298 12.1866V40.7271C2.27298 43.3543 4.40265 45.4839 7.02974 45.4839H14.1649" stroke="black" stroke-width="4" stroke-linecap="round" stroke-linejoin="round"/>
<path d="M28.4352 2.6731V12.1866" stroke="black" stroke-width="4" stroke-linecap="round" stroke-linejoin="round"/>
<path d="M14.1649 2.6731V12.1866" stroke="black" stroke-width="4" stroke-linecap="round" stroke-linejoin="round"/>
</svg>
